<?xml version="1.0" encoding="UTF-8" standalone="no"?>
<!-- Generator: Adobe Illustrator 23.0.0, SVG Export Plug-In . SVG Version: 6.00 Build 0)  -->

<svg
   xmlns:dc="http://purl.org/dc/elements/1.1/"
   xmlns:cc="http://creativecommons.org/ns#"
   xmlns:rdf="http://www.w3.org/1999/02/22-rdf-syntax-ns#"
   xmlns:svg="http://www.w3.org/2000/svg"
   xmlns="http://www.w3.org/2000/svg"
   xmlns:sodipodi="http://sodipodi.sourceforge.net/DTD/sodipodi-0.dtd"
   xmlns:inkscape="http://www.inkscape.org/namespaces/inkscape"
   version="1.1"
   id="Layer_1"
   x="0px"
   y="0px"
   viewBox="0 0 282.9437 172.94"
   xml:space="preserve"
   sodipodi:docname="SpeedwayMotors_Logo_Full_RGB.svg"
   width="282.9437"
   height="172.94"
   inkscape:version="0.92.3 (2405546, 2018-03-11)"><metadata
   id="metadata189"><rdf:RDF><cc:Work
       rdf:about=""><dc:format>image/svg+xml</dc:format><dc:type
         rdf:resource="http://purl.org/dc/dcmitype/StillImage" /><dc:title></dc:title></cc:Work></rdf:RDF></metadata><defs
   id="defs187" /><sodipodi:namedview
   pagecolor="#ffffff"
   bordercolor="#666666"
   borderopacity="1"
   objecttolerance="10"
   gridtolerance="10"
   guidetolerance="10"
   inkscape:pageopacity="0"
   inkscape:pageshadow="2"
   inkscape:window-width="640"
   inkscape:window-height="480"
   id="namedview185"
   showgrid="false"
   fit-margin-top="0"
   fit-margin-left="0"
   fit-margin-right="0"
   fit-margin-bottom="0"
   inkscape:zoom="0.85606061"
   inkscape:cx="116.55122"
   inkscape:cy="86.47"
   inkscape:window-x="511"
   inkscape:window-y="1214"
   inkscape:window-maximized="0"
   inkscape:current-layer="Layer_1" />
<style
   type="text/css"
   id="style146">
	.st0{fill:#FFC72C;}
	.st1{fill:#470A68;}
</style>
<path
   class="st0"
   d="m 196.4737,0 c -47.68,0 -86.47,38.79 -86.47,86.47 0,47.68 38.79,86.47 86.47,86.47 47.68,0 86.47,-38.79 86.47,-86.47 0,-47.68 -38.79,-86.47 -86.47,-86.47"
   id="path148"
   inkscape:connector-curvature="0"
   style="fill:#ffc72c" />
<g
   id="g182"
   transform="translate(-61.006302,-39.53)">
	<path
   class="st1"
   d="m 307.18,162.52 h 0.7 c 0.24,0 0.42,0.04 0.52,0.13 0.1,0.09 0.15,0.24 0.15,0.45 v 0.67 h 0.57 v -0.73 c 0,-0.19 -0.03,-0.35 -0.11,-0.48 -0.07,-0.13 -0.19,-0.22 -0.35,-0.28 0.18,-0.06 0.31,-0.15 0.39,-0.28 0.08,-0.13 0.13,-0.29 0.13,-0.49 0,-0.31 -0.1,-0.54 -0.29,-0.69 -0.19,-0.15 -0.49,-0.22 -0.91,-0.22 h -1.37 v 3.16 h 0.57 z m 0,-1.45 h 0.69 c 0.26,0 0.45,0.04 0.56,0.11 0.11,0.08 0.17,0.2 0.17,0.36 0,0.18 -0.06,0.3 -0.18,0.38 -0.12,0.08 -0.31,0.12 -0.56,0.12 h -0.68 z"
   id="path150"
   inkscape:connector-curvature="0"
   style="fill:#470a68" />
	<path
   class="st1"
   d="m 305.48,163.4 c 0.19,0.44 0.49,0.78 0.9,1.02 0.41,0.24 0.9,0.36 1.47,0.36 0.57,0 1.06,-0.12 1.46,-0.36 0.4,-0.24 0.71,-0.58 0.91,-1.02 0.08,-0.18 0.14,-0.36 0.18,-0.55 0.03,-0.19 0.05,-0.42 0.05,-0.67 0,-0.25 -0.02,-0.47 -0.05,-0.67 -0.03,-0.19 -0.09,-0.38 -0.18,-0.55 -0.2,-0.44 -0.5,-0.79 -0.91,-1.03 -0.4,-0.24 -0.89,-0.36 -1.46,-0.36 -0.57,0 -1.06,0.12 -1.47,0.36 -0.41,0.24 -0.71,0.58 -0.9,1.02 -0.08,0.18 -0.15,0.36 -0.18,0.56 -0.04,0.2 -0.06,0.42 -0.06,0.66 0,0.24 0.02,0.46 0.06,0.65 0.04,0.21 0.1,0.4 0.18,0.58 z m 0.26,-1.81 c 0.03,-0.16 0.08,-0.32 0.15,-0.47 0.16,-0.37 0.41,-0.65 0.74,-0.84 0.33,-0.19 0.74,-0.28 1.23,-0.28 0.48,0 0.88,0.09 1.21,0.28 0.33,0.19 0.58,0.47 0.74,0.84 0.07,0.15 0.12,0.31 0.15,0.48 0.03,0.17 0.05,0.36 0.05,0.58 0,0.21 -0.02,0.4 -0.05,0.57 -0.03,0.17 -0.08,0.33 -0.15,0.48 -0.17,0.37 -0.42,0.65 -0.74,0.84 -0.33,0.19 -0.73,0.29 -1.21,0.29 -0.49,0 -0.89,-0.1 -1.22,-0.29 -0.33,-0.19 -0.57,-0.47 -0.74,-0.84 -0.07,-0.15 -0.12,-0.31 -0.15,-0.47 -0.03,-0.16 -0.04,-0.35 -0.04,-0.57 -0.01,-0.24 0,-0.43 0.03,-0.6 z"
   id="path152"
   inkscape:connector-curvature="0"
   style="fill:#470a68" />
	<path
   class="st1"
   d="m 311.62,67.8 c 0,0 0,0 0,0 -6.61,-6.16 -14.27,-11.2 -22.68,-14.84 -0.08,-0.03 -0.15,-0.07 -0.23,-0.1 -0.45,-0.19 -0.91,-0.38 -1.36,-0.57 -0.13,-0.05 -0.26,-0.11 -0.39,-0.16 -0.42,-0.17 -0.85,-0.33 -1.27,-0.5 -0.17,-0.06 -0.33,-0.13 -0.5,-0.19 -0.4,-0.15 -0.81,-0.29 -1.21,-0.44 -0.2,-0.07 -0.39,-0.14 -0.59,-0.21 -0.39,-0.13 -0.77,-0.26 -1.16,-0.39 -0.22,-0.07 -0.44,-0.14 -0.66,-0.21 -0.37,-0.12 -0.75,-0.23 -1.12,-0.35 -0.24,-0.07 -0.48,-0.14 -0.72,-0.21 -0.36,-0.11 -0.72,-0.21 -1.09,-0.31 -0.26,-0.07 -0.51,-0.14 -0.77,-0.21 -0.35,-0.09 -0.71,-0.18 -1.06,-0.27 -0.27,-0.07 -0.54,-0.13 -0.82,-0.2 -0.34,-0.08 -0.69,-0.16 -1.03,-0.24 -0.29,-0.06 -0.57,-0.13 -0.86,-0.19 -0.34,-0.07 -0.68,-0.14 -1.01,-0.21 -0.3,-0.06 -0.6,-0.12 -0.9,-0.17 -0.33,-0.06 -0.66,-0.12 -0.99,-0.18 -0.31,-0.05 -0.63,-0.11 -0.94,-0.16 -0.32,-0.05 -0.65,-0.11 -0.97,-0.15 -0.33,-0.05 -0.65,-0.09 -0.98,-0.14 -0.32,-0.04 -0.63,-0.09 -0.95,-0.13 -0.34,-0.04 -0.68,-0.08 -1.02,-0.12 -0.31,-0.03 -0.61,-0.07 -0.92,-0.1 -0.36,-0.04 -0.72,-0.07 -1.08,-0.1 -0.29,-0.03 -0.59,-0.05 -0.88,-0.07 -0.39,-0.03 -0.77,-0.05 -1.16,-0.07 -0.27,-0.02 -0.54,-0.04 -0.82,-0.05 -0.44,-0.02 -0.87,-0.04 -1.31,-0.05 -0.23,-0.01 -0.45,-0.02 -0.68,-0.02 -0.67,-0.02 -1.33,-0.03 -2,-0.03 -1.08,0 -2.16,0.02 -3.23,0.07 -0.36,0.01 -0.72,0.04 -1.08,0.06 -0.71,0.04 -1.42,0.07 -2.12,0.13 -0.43,0.03 -0.85,0.08 -1.28,0.13 -0.63,0.06 -1.26,0.12 -1.89,0.19 -0.45,0.05 -0.9,0.12 -1.35,0.19 -0.6,0.08 -1.19,0.16 -1.78,0.26 -0.46,0.07 -0.92,0.16 -1.38,0.25 -0.57,0.1 -1.14,0.2 -1.71,0.32 -0.47,0.09 -0.93,0.2 -1.39,0.3 -0.55,0.12 -1.11,0.24 -1.65,0.38 -0.47,0.11 -0.93,0.24 -1.39,0.36 -0.54,0.14 -1.08,0.28 -1.61,0.44 -0.47,0.13 -0.93,0.28 -1.39,0.42 -0.52,0.16 -1.05,0.32 -1.56,0.49 -0.46,0.15 -0.92,0.31 -1.38,0.47 -0.51,0.18 -1.02,0.36 -1.53,0.55 -0.46,0.17 -0.91,0.35 -1.36,0.53 -0.5,0.2 -1,0.4 -1.49,0.6 -0.45,0.19 -0.9,0.38 -1.35,0.58 -0.49,0.21 -0.97,0.43 -1.45,0.65 -0.45,0.21 -0.89,0.42 -1.33,0.63 -0.47,0.23 -0.94,0.46 -1.41,0.7 -0.44,0.22 -0.87,0.45 -1.31,0.68 -0.46,0.25 -0.92,0.5 -1.37,0.75 -0.43,0.24 -0.86,0.48 -1.28,0.73 -0.45,0.26 -0.89,0.53 -1.34,0.8 -0.42,0.26 -0.84,0.52 -1.25,0.78 -0.44,0.28 -0.87,0.56 -1.3,0.85 -0.41,0.27 -0.82,0.55 -1.23,0.83 -0.42,0.29 -0.84,0.59 -1.26,0.9 -0.4,0.29 -0.8,0.58 -1.2,0.88 -0.41,0.31 -0.81,0.62 -1.22,0.94 -0.39,0.3 -0.78,0.61 -1.17,0.92 -0.4,0.32 -0.79,0.65 -1.18,0.98 -0.38,0.32 -0.76,0.64 -1.13,0.96 -0.38,0.34 -0.76,0.68 -1.14,1.03 -0.37,0.33 -0.74,0.67 -1.1,1.01 -0.37,0.35 -0.73,0.71 -1.1,1.07 -0.35,0.35 -0.71,0.69 -1.06,1.05 -0.36,0.36 -0.7,0.74 -1.06,1.11 -0.34,0.36 -0.69,0.72 -1.02,1.08 -0.34,0.38 -0.68,0.77 -1.01,1.15 -0.33,0.37 -0.66,0.74 -0.98,1.12 -0.33,0.4 -0.66,0.8 -0.98,1.21 -0.31,0.38 -0.62,0.75 -0.92,1.14 -0.36,0.46 -0.7,0.93 -1.05,1.4 -0.53,0.71 -1.05,1.44 -1.56,2.17 -0.3,0.43 -0.6,0.86 -0.9,1.29 -0.28,0.42 -0.54,0.85 -0.81,1.27 -0.27,0.43 -0.55,0.85 -0.82,1.28 -0.26,0.43 -0.52,0.87 -0.77,1.31 -0.26,0.44 -0.52,0.87 -0.76,1.31 -0.25,0.44 -0.49,0.9 -0.73,1.34 -0.24,0.44 -0.48,0.89 -0.71,1.34 -0.23,0.45 -0.45,0.91 -0.68,1.37 -0.22,0.45 -0.45,0.91 -0.66,1.37 -0.22,0.46 -0.42,0.93 -0.62,1.4 -0.21,0.47 -0.41,0.93 -0.61,1.4 -0.2,0.47 -0.38,0.95 -0.57,1.42 -0.14,0.34 -0.28,0.68 -0.41,1.02 h 0.01 11.95 c 10.76,-23.75 34.69,-40.32 62.42,-40.32 19.58,0 37.26,8.26 49.76,21.47 0.89,-2.25 1.76,-4.46 2.62,-6.65 13.97,13.64 22.66,32.66 22.66,53.67 0,39.19 -30.21,71.46 -68.56,74.75 -1.39,0.09 -25.43,1.43 -45.41,-12.98 -24.07,-17.37 -27.41,-38.96 -27.86,-44 h 0.94 113.82 v -0.04 c 3.61,-0.37 6.85,-10.29 8.52,-14.58 l 10.21,-26.23 H 313.8 c -1.3,-0.05 -1.95,0.46 -2.52,1.97 -1.71,4.57 -6.06,15.26 -7.82,19.8 -0.87,2.24 -2.18,3.43 -4.13,3.26 -1.61,-0.14 -2,-1 -1.25,-2.93 0.73,-1.88 8.7,-22.1 8.7,-22.1 H 290 l 3.88,2.45 c -2.58,6.38 -7.05,17.44 -9.29,23.32 -0.69,1.83 -0.28,3.11 1.48,3.12 h 14.45 c -1.44,4.36 -1.1,7.84 -4.26,7.93 l -124.43,-0.05 8.67,6.36 c 8.9,34.19 40.03,59.51 76.97,59.51 0.67,0 1.33,-0.01 1.99,-0.03 0.59,-0.01 1.18,-0.04 1.77,-0.07 0.06,0 0.12,0 0.18,-0.01 42.03,-2.07 75.58,-36.9 75.58,-79.43 0.02,-22.97 -9.76,-43.68 -25.37,-58.21 z"
   id="path154"
   inkscape:connector-curvature="0"
   style="fill:#470a68" />
	<path
   class="st1"
   d="m 124.96,121.01 c 0.85,-1.04 1.6,-2.37 2.25,-3.96 l 2.53,-6.28 c 0.4,-1 0.66,-1.85 0.79,-2.54 0.2,-1.07 0.18,-1.94 -0.05,-2.62 -0.23,-0.68 -0.56,-1.22 -1,-1.6 -0.44,-0.38 -0.96,-0.65 -1.55,-0.81 -0.59,-0.15 -1.15,-0.28 -1.66,-0.29 H 105.31 L 92.54,134.8 h 10.32 l 3.88,-9.63 9.99,0.04 c 0.84,0 1.74,-0.13 2.7,-0.39 0.97,-0.26 1.92,-0.7 2.85,-1.31 0.94,-0.62 1.83,-1.45 2.68,-2.5 z m -5.05,-11.63 c -0.08,0.43 -0.24,0.95 -0.49,1.55 l -2.44,6.03 c -0.45,1.13 -0.92,1.87 -1.4,2.22 -0.48,0.35 -1.07,0.52 -1.78,0.52 l -4.9,-0.02 4.62,-11.52 5.18,0.02 c 0.51,0 0.86,0.09 1.05,0.25 0.2,0.17 0.24,0.49 0.16,0.95 z"
   id="path156"
   inkscape:connector-curvature="0"
   style="fill:#470a68" />
	<path
   class="st1"
   d="m 135.63,128.04 c 0.05,-0.27 0.15,-0.58 0.3,-0.95 l 2.42,-6.13 h 8.54 l 2.16,-5.38 h -8.54 l 1.93,-4.79 c 0.3,-0.76 0.68,-1.38 1.15,-1.84 0.47,-0.46 1,-0.7 1.63,-0.69 l 8.29,0.03 2.11,-5.37 h -15.33 c -1.94,-0.01 -3.61,0.63 -5,1.97 -1.39,1.34 -2.51,3.03 -3.34,5.06 l -7.1,17.75 c -0.4,1 -0.67,1.86 -0.8,2.6 -0.25,1.36 -0.12,2.45 0.39,3.27 0.51,0.82 1.54,1.23 3.07,1.24 h 15.33 l 2.15,-5.27 -7.85,-0.03 c -1.18,-0.02 -1.69,-0.51 -1.51,-1.47 z"
   id="path158"
   inkscape:connector-curvature="0"
   style="fill:#470a68" />
	<path
   class="st1"
   d="m 158.46,128.04 c 0.05,-0.27 0.15,-0.58 0.3,-0.95 l 2.42,-6.13 h 8.54 l 2.16,-5.38 h -8.54 l 1.93,-4.79 c 0.3,-0.76 0.68,-1.38 1.15,-1.84 0.46,-0.46 1,-0.7 1.63,-0.69 l 8.29,0.03 2.11,-5.37 h -15.33 c -1.94,-0.01 -3.61,0.63 -5,1.97 -1.39,1.34 -2.51,3.03 -3.33,5.06 l -7.1,17.75 c -0.4,1 -0.67,1.86 -0.8,2.6 -0.25,1.36 -0.12,2.45 0.39,3.27 0.51,0.82 1.54,1.23 3.07,1.24 h 15.33 l 2.15,-5.27 -7.85,-0.03 c -1.19,-0.02 -1.69,-0.51 -1.52,-1.47 z"
   id="path160"
   inkscape:connector-curvature="0"
   style="fill:#470a68" />
	<path
   class="st1"
   d="m 196.67,133.01 c 1.38,-1.26 2.51,-2.99 3.4,-5.18 l 7.1,-17.75 c 0.39,-0.96 0.66,-1.81 0.79,-2.54 0.26,-1.4 0.12,-2.51 -0.42,-3.32 -0.54,-0.82 -1.55,-1.29 -3.03,-1.3 h -23.38 l -12.77,31.89 h 23.38 c 1.9,-0.01 3.55,-0.54 4.93,-1.8 z m -8.06,-3.98 c -0.49,0.36 -1.12,0.54 -1.9,0.54 l -5.74,-0.02 8.57,-21.34 6.15,0.02 c 0.43,0 0.73,0.15 0.91,0.45 0.17,0.3 0.22,0.7 0.12,1.2 -0.03,0.17 -0.1,0.42 -0.22,0.75 l -6.64,16.56 c -0.35,0.86 -0.76,1.48 -1.25,1.84 z"
   id="path162"
   inkscape:connector-curvature="0"
   style="fill:#470a68" />
	<path
   class="st1"
   d="m 92.22,116.81 c -3.77,-0.01 -7.55,0 -11.32,-0.01 -1.38,0 -1.81,-0.89 -1.22,-2.49 0.55,-1.5 1.13,-2.98 1.71,-4.47 1.06,-2.69 2.98,-3.85 5.18,-3.07 0.63,0.22 0.86,0.89 0.72,1.71 -0.08,0.46 -0.25,0.92 -0.41,1.36 -0.33,0.92 -0.67,1.95 -1.04,2.93 l 11.61,-0.02 c 0.26,0 0.68,-0.37 0.81,-0.68 0.62,-1.47 1.19,-2.96 1.71,-4.47 1,-2.93 0.14,-4.69 -2.36,-4.7 -3.02,-0.01 -32.33,0.01 -32.33,0.01 l 5.45,2.94 c -0.9,2.2 -2.39,5.95 -3.09,7.82 -0.42,1.14 -0.88,2.3 -1.12,3.48 -0.4,1.97 0.49,3.35 2.09,3.51 0.38,0.04 0.77,0.05 1.15,0.05 3.47,0 6.94,0 10.41,0.01 1.75,0 2.17,0.84 1.43,2.83 -0.48,1.3 -0.98,2.6 -1.48,3.9 -1.08,2.76 -2.38,3.69 -4.74,3.4 -1.26,-0.15 -1.63,-0.97 -1.1,-2.47 0.41,-1.14 0.84,-2.38 1.29,-3.59 H 64.02 c -0.5,0 -0.77,0.4 -0.9,0.71 -0.61,1.47 -1.18,2.96 -1.71,4.46 -1.02,2.89 -0.07,4.83 2.43,4.83 h 21.49 c 2.41,-0.01 4.43,-1.52 5.64,-4.1 1.43,-3.04 2.59,-6.26 3.69,-9.47 0.87,-2.56 -0.24,-4.41 -2.44,-4.41 z"
   id="path164"
   inkscape:connector-curvature="0"
   style="fill:#470a68" />
	<path
   class="st1"
   d="m 200.87,134.79 h 38.97 c 2.74,0 4.95,-1.89 6.28,-5.27 3.16,-8.05 9.86,-25.7 10.14,-26.61 h -9.52 c -1.31,-0.06 -1.94,0.6 -2.51,2.09 -2.8,7.29 -5.68,14.55 -8.55,21.81 -1.52,3.86 -2.35,4.4 -5.81,3.73 3.55,-9.1 7.16,-18.36 10.78,-27.64 h -11.4 c -0.31,0.75 -6.68,16.94 -9.55,24.2 -1.37,3.47 -2.74,4.25 -5.64,3.18 3.53,-9.04 7.06,-18.12 10.68,-27.38 h -15.7 l 3.48,1.86 c -0.01,0.02 -6.05,15.56 -9.08,23.3 z"
   id="path166"
   inkscape:connector-curvature="0"
   style="fill:#470a68" />
	<path
   class="st1"
   d="m 276.74,134.79 c 0.52,-0.02 1.4,-0.63 1.65,-1.25 3.32,-8.25 6.77,-16.81 9.98,-25.11 1.45,-3.77 0.57,-5.5 -2.66,-5.53 h -19.54 c -3.6,-0.01 -5.68,1.53 -7.3,5.69 -2.6,6.64 -9.44,24.02 -10.28,26.2 h 10.94 c 0.51,-0.02 1.33,-0.76 1.62,-1.4 1,-2.21 1.85,-4.49 2.7,-6.78 0.44,-1.18 0.99,-1.71 2.05,-1.59 h 3.8 l -3.82,9.77 z m -10.67,-13.83 c 1.64,-4.12 3.05,-7.77 4.54,-11.38 0.88,-2.12 2.38,-2.66 4.03,-2.45 1.22,0.16 1.7,1.04 1.12,2.56 -1.28,3.36 -2.58,6.71 -3.98,10.02 -0.24,0.56 -1.04,1.18 -1.57,1.25 z"
   id="path168"
   inkscape:connector-curvature="0"
   style="fill:#470a68" />
	<path
   class="st1"
   d="m 227.74,154.13 c -0.01,0.06 -0.04,0.14 -0.09,0.24 l -3.98,10.17 5.58,0.01 3.32,-8.45 c 0.23,-0.57 0.4,-1.08 0.52,-1.52 0.12,-0.44 0.21,-0.84 0.26,-1.2 0.09,-0.59 0.09,-1.06 0,-1.42 -0.09,-0.36 -0.25,-0.62 -0.47,-0.81 -0.22,-0.19 -0.5,-0.32 -0.83,-0.39 -0.34,-0.07 -0.69,-0.1 -1.07,-0.1 l -19.57,-0.02 v 0 h -4.79 l 3.53,1.88 c 0,0 0,0 0,0 l -4.7,12.01 5.59,0.01 3.98,-10.17 c 0.28,-0.67 0.66,-1.01 1.14,-1 h 2.02 c 0.38,0 0.54,0.2 0.48,0.59 l -0.03,0.18 c -0.01,0.06 -0.04,0.14 -0.09,0.24 l -3.98,10.17 5.59,0.01 3.98,-10.17 c 0.28,-0.67 0.66,-1.01 1.14,-1.01 h 2.02 c 0.38,0 0.54,0.2 0.48,0.59 z"
   id="path170"
   inkscape:connector-curvature="0"
   style="fill:#470a68" />
	<path
   class="st1"
   d="m 233.91,164.54 9.52,0.01 c 0.69,0 1.29,-0.08 1.81,-0.25 0.52,-0.17 0.98,-0.42 1.38,-0.77 0.4,-0.34 0.76,-0.78 1.07,-1.3 0.32,-0.52 0.62,-1.15 0.9,-1.88 l 2.16,-5.5 c 0.32,-0.81 0.51,-1.46 0.59,-1.95 0.12,-0.77 -0.01,-1.34 -0.38,-1.7 -0.37,-0.37 -1.07,-0.55 -2.09,-0.55 l -9.52,-0.01 c -0.69,0 -1.29,0.08 -1.81,0.25 -0.52,0.17 -0.98,0.42 -1.38,0.77 -0.4,0.34 -0.76,0.78 -1.07,1.3 -0.31,0.52 -0.62,1.15 -0.9,1.88 l -2.16,5.5 c -0.32,0.81 -0.51,1.46 -0.59,1.95 -0.12,0.77 0.01,1.34 0.38,1.7 0.38,0.37 1.07,0.55 2.09,0.55 z m 4.1,-3.84 2.42,-6.21 c 0.15,-0.39 0.32,-0.68 0.51,-0.86 0.19,-0.18 0.46,-0.27 0.8,-0.27 h 2.54 c 0.5,0 0.72,0.2 0.66,0.59 -0.02,0.16 -0.08,0.34 -0.16,0.53 l -2.42,6.21 c -0.15,0.39 -0.32,0.68 -0.52,0.86 -0.2,0.18 -0.48,0.26 -0.84,0.26 h -2.53 c -0.46,0 -0.67,-0.2 -0.6,-0.59 0,-0.12 0.05,-0.3 0.14,-0.52 z"
   id="path172"
   inkscape:connector-curvature="0"
   style="fill:#470a68" />
	<path
   class="st1"
   d="m 255.98,160.72 2.86,-7.33 h 3.83 l 1.08,-2.72 h -3.83 l 1.17,-3.01 -6.1,-0.01 -4.93,12.56 c -0.26,0.65 -0.43,1.22 -0.5,1.71 -0.08,0.51 -0.07,0.94 0.02,1.29 0.09,0.34 0.25,0.62 0.48,0.81 0.23,0.2 0.51,0.34 0.84,0.41 0.33,0.08 0.7,0.12 1.09,0.12 l 6.65,0.01 1.07,-2.72 h -2.95 c -0.4,0 -0.67,-0.03 -0.81,-0.11 -0.14,-0.07 -0.2,-0.21 -0.17,-0.43 0.01,-0.08 0.04,-0.17 0.07,-0.27 0.03,-0.08 0.07,-0.19 0.13,-0.31 z"
   id="path174"
   inkscape:connector-curvature="0"
   style="fill:#470a68" />
	<path
   class="st1"
   d="m 263.24,164.57 9.52,0.01 c 0.69,0 1.29,-0.08 1.81,-0.25 0.52,-0.17 0.98,-0.42 1.37,-0.77 0.4,-0.34 0.76,-0.78 1.07,-1.3 0.32,-0.52 0.62,-1.15 0.9,-1.88 l 2.16,-5.5 c 0.32,-0.81 0.51,-1.46 0.59,-1.95 0.12,-0.77 -0.01,-1.34 -0.38,-1.7 -0.37,-0.37 -1.07,-0.55 -2.09,-0.55 l -9.52,-0.01 c -0.69,0 -1.29,0.08 -1.81,0.25 -0.52,0.17 -0.98,0.42 -1.38,0.77 -0.4,0.35 -0.76,0.78 -1.07,1.3 -0.31,0.52 -0.62,1.15 -0.9,1.88 l -2.16,5.5 c -0.32,0.81 -0.51,1.46 -0.59,1.95 -0.12,0.77 0.01,1.34 0.38,1.7 0.38,0.37 1.08,0.55 2.1,0.55 z m 4.09,-3.84 2.42,-6.21 c 0.15,-0.39 0.32,-0.68 0.51,-0.86 0.19,-0.18 0.46,-0.27 0.81,-0.27 h 2.54 c 0.5,0 0.72,0.2 0.66,0.59 -0.02,0.16 -0.08,0.34 -0.16,0.53 l -2.42,6.21 c -0.15,0.4 -0.32,0.68 -0.52,0.86 -0.2,0.18 -0.48,0.27 -0.84,0.27 h -2.54 c -0.46,0 -0.67,-0.2 -0.6,-0.59 0,-0.13 0.06,-0.31 0.14,-0.53 z"
   id="path176"
   inkscape:connector-curvature="0"
   style="fill:#470a68" />
	<path
   class="st1"
   d="m 288.24,154.57 c 0.17,-0.43 0.36,-0.73 0.57,-0.9 0.21,-0.17 0.5,-0.25 0.88,-0.25 h 3.18 l 1.07,-2.72 -6.7,-0.01 c -1.45,0 -2.67,0.45 -3.65,1.36 -0.99,0.91 -1.78,2.14 -2.39,3.69 l -3.46,8.84 6.57,0.01 z"
   id="path178"
   inkscape:connector-curvature="0"
   style="fill:#470a68" />
	<path
   class="st1"
   d="m 300.83,153.73 c 0.19,-0.2 0.55,-0.29 1.07,-0.29 h 2.69 l 1.07,-2.72 -8.22,-0.01 c -0.55,0 -1.07,0.08 -1.55,0.24 -0.48,0.16 -0.97,0.52 -1.48,1.09 -0.61,0.69 -0.98,1.46 -1.11,2.3 -0.08,0.53 -0.07,1.01 0.04,1.42 l 1.11,4.44 c 0.04,0.16 0.06,0.32 0.03,0.47 -0.04,0.28 -0.18,0.55 -0.42,0.81 -0.24,0.27 -0.58,0.4 -1.03,0.4 h -2.77 l -1.07,2.72 8.66,0.01 c 0.55,0 1.06,-0.1 1.53,-0.29 0.47,-0.19 0.93,-0.58 1.38,-1.15 0.3,-0.37 0.52,-0.73 0.64,-1.06 0.13,-0.33 0.22,-0.66 0.27,-0.98 0.05,-0.32 0.06,-0.61 0.05,-0.87 -0.02,-0.27 -0.08,-0.59 -0.17,-0.96 l -1.03,-4.29 c -0.02,-0.06 -0.04,-0.14 -0.05,-0.25 -0.01,-0.11 0,-0.21 0.01,-0.31 0.04,-0.29 0.15,-0.52 0.35,-0.72 z"
   id="path180"
   inkscape:connector-curvature="0"
   style="fill:#470a68" />
</g>
</svg>