<svg version="1.1" id="Layer_1" xmlns="http://www.w3.org/2000/svg" xmlns:xlink="http://www.w3.org/1999/xlink" x="0px" y="0px" width="58px" height="58px" viewBox="0 0 595.279 595.28" enable-background="new 0 0 595.279 595.28" xml:space="preserve"><path id="color_x5F_1_17_" fill="#13447B" d="M519.313,242.211c-0.323-8.699-7.638-15.49-16.339-15.169    c-8.7,0.324-15.49,7.638-15.168,16.337c0.205,5.533,3.242,10.284,7.66,12.934c-0.079,0.489,1.883,90.01-36.731,189.002    c-8.402,0.637-14.872,7.791-14.557,16.284c0.323,8.702,7.636,15.492,16.338,15.17c8.7-0.324,15.491-7.638,15.169-16.338    c-0.109-2.955-1.04-5.679-2.543-7.99c40.313-102.51,38.184-195.639,38.146-195.917C516.261,253.718,519.538,248.31,519.313,242.211z     M460.224,468.894c-4.351,0.162-8.008-3.237-8.169-7.585c-0.162-4.349,3.235-8.007,7.585-8.169c4.35-0.163,8.007,3.235,8.168,7.584    C467.969,465.073,464.573,468.731,460.224,468.894z M503.851,250.674c-4.35,0.161-8.008-3.236-8.17-7.586    c-0.16-4.35,3.236-8.008,7.586-8.168c4.35-0.164,8.007,3.235,8.169,7.584C511.597,246.854,508.2,250.512,503.851,250.674z     M453.579,378.798c0-8.706-7.058-15.765-15.764-15.765c-4.824,0-9.137,2.173-12.028,5.586c-8.485,2.422-14.707-2.083-16.455-3.615    c-15.124-13.247-6.99-72.251-6.704-78.798c2.006-45.83,4.279-97.773-37.953-139.647c-19.1-18.937-46.348-27.205-73.19-25.173    c-35.565,2.691-56.938,35.038-57.509,35.038c-8.706,0-15.764,7.058-15.764,15.763c0,8.707,7.058,15.764,15.764,15.764    c8.707,0,15.765-7.058,15.765-15.764c0-2.19-0.448-4.278-1.258-6.174c0.181-0.211,10.696-24.004,44.891-28.728    c21.542-2.976,44.599,5.347,60.028,20.646c37.2,36.884,35.182,82.987,33.23,127.574c-0.277,6.336-5.717,72.061,9.206,89.619    c9.237,10.867,25.748,9.27,27.212,9.154c2.229,6,7.988,10.283,14.766,10.283C446.521,394.561,453.579,387.503,453.579,378.798z     M233.976,180.07c-4.353,0-7.883-3.53-7.883-7.883c0-4.353,3.53-7.883,7.883-7.883c4.354,0,7.883,3.531,7.883,7.883    C241.858,176.54,238.329,180.07,233.976,180.07z M437.815,386.681c-4.354,0-7.883-3.53-7.883-7.883c0-4.354,3.529-7.884,7.883-7.884    c4.353,0,7.881,3.53,7.881,7.884C445.696,383.15,442.168,386.681,437.815,386.681z M411.161,414.681    c-5.383,0-10.131,2.702-12.975,6.819c-0.346-0.081-12.176-1.419-22.595-9.881c-14.569-11.833-20.976-31.571-19.038-58.67    c3.794-53.051,3.324-86.657-1.574-112.363c-5.489-28.825-24.504-49.359-47.314-51.096c-21.947-1.677-40.869,13.768-50.617,41.301    c-7.247,20.471-9.577,50.966-12.525,89.573c-3.259,42.652-18.213,74.656-44.448,95.118c-18.208,14.2-35.913,17.7-38.491,18.147    c-2.891-3.438-7.221-5.626-12.064-5.626c-8.706,0-15.764,7.058-15.764,15.763c0,8.708,7.058,15.766,15.764,15.766    c6.711,0,12.427-4.2,14.701-10.108c4.169-0.704,24.138-4.774,44.953-20.737c37.868-29.041,48.807-74.271,51.314-107.104    c2.745-35.941,5.116-66.98,11.654-85.449c7.186-20.298,20.004-31.745,34.307-30.678c15.502,1.181,28.685,16.503,32.803,38.127    c4.623,24.268,5.021,56.635,1.332,108.225c-1.603,22.424,1.418,53.158,24.915,72.241c14.318,11.628,31.037,13.263,31.474,13.229    c2.548,5.278,7.936,8.93,14.189,8.93c8.707,0,15.766-7.058,15.766-15.764C426.927,421.739,419.868,414.681,411.161,414.681z     M149.519,451.648c-4.352,0-7.882-3.529-7.882-7.883c0-4.351,3.53-7.881,7.882-7.881c4.354,0,7.883,3.53,7.883,7.881    C157.401,448.119,153.872,451.648,149.519,451.648z M411.161,438.327c-4.352,0-7.881-3.53-7.881-7.884s3.529-7.883,7.881-7.883    c4.354,0,7.883,3.529,7.883,7.883S415.515,438.327,411.161,438.327z M405.415,460.662c-4.779,0-9.052,2.133-11.943,5.49    c-0.25-0.096-24.283-0.844-41.104-11.696c-16.752-10.809-26.289-31.722-26.38-31.866c1.771-2.55,2.816-5.641,2.816-8.979    c0-8.707-7.058-15.766-15.765-15.766s-15.764,7.059-15.764,15.766c0,8.22,6.293,14.962,14.324,15.691    c0.046,0.139,11.576,23.878,31.529,37.107c19.396,12.859,47.229,15.222,47.42,15.226c2.153,6.142,7.986,10.553,14.865,10.553    c8.705,0,15.764-7.057,15.764-15.763C421.179,467.719,414.12,460.662,405.415,460.662z M313.04,421.494    c-4.353,0-7.883-3.53-7.883-7.883c0-4.354,3.53-7.884,7.883-7.884c4.354,0,7.882,3.53,7.882,7.884    C320.922,417.964,317.394,421.494,313.04,421.494z M405.415,484.31c-4.354,0-7.883-3.532-7.883-7.884    c0-4.353,3.529-7.885,7.883-7.885c4.352,0,7.881,3.532,7.881,7.885C413.296,480.777,409.767,484.31,405.415,484.31z     M137.333,390.536c0.721,0.046,21.968-0.878,36.148-7.325c32.125-14.604,35.762-55.1,35.069-77.938    c-1.147-37.857,7.792-58.99,7.946-59.346c0.021-0.052,0.037-0.102,0.059-0.154c7.671-1.066,13.581-7.631,13.581-15.595    c0-8.706-7.058-15.765-15.765-15.765s-15.764,7.059-15.764,15.765c0,3.551,1.188,6.814,3.168,9.45    c-1.027,2.394-10.459,25.558-9.229,66.13c0.987,32.567-8.138,54.897-25.692,62.879c-15.636,7.108-29.92,5.846-30.434,5.89    c-2.832-4.209-7.636-6.978-13.089-6.978c-8.706,0-15.765,7.059-15.765,15.765s7.059,15.764,15.765,15.764    C129.432,399.076,134.712,395.606,137.333,390.536z M214.372,222.294c4.354,0,7.883,3.53,7.883,7.883    c0,4.353-3.529,7.883-7.883,7.883c-4.353,0-7.883-3.53-7.883-7.883C206.489,225.824,210.02,222.294,214.372,222.294z     M123.332,391.195c-4.353,0-7.883-3.53-7.883-7.883s3.53-7.883,7.883-7.883s7.882,3.53,7.882,7.883S127.685,391.195,123.332,391.195    z M103.112,196.573c8.707,0,15.764-7.059,15.764-15.764c0-4.279-1.711-8.155-4.48-10.996c1.73-5.037,12.355-34.065,36.764-63.535    c35.67-43.07,82.074-65.961,137.924-68.04c65.746-2.448,117.875,18.839,154.936,63.262c27.877,33.418,37.064,70.213,37.518,70.936    c-3.24,2.887-5.292,7.078-5.292,11.76c0,8.706,7.058,15.763,15.765,15.763c8.706,0,15.764-7.057,15.764-15.763    c0-7.229-4.871-13.306-11.506-15.166c0.094-0.876-9.449-40.953-39.495-77.234c-27.787-33.555-79.547-72.854-168.284-69.557    c-75.485,2.808-123.051,41.697-149.66,73.824c-28.107,33.938-39.063,66.91-39.915,69.565c-6.665,1.84-11.564,7.932-11.564,15.181    C87.348,189.514,94.405,196.573,103.112,196.573z M492.009,176.313c4.353,0,7.881,3.53,7.881,7.883c0,4.353-3.528,7.883-7.881,7.883    c-4.354,0-7.883-3.531-7.883-7.883C484.126,179.843,487.655,176.313,492.009,176.313z M103.112,172.925    c4.353,0,7.883,3.53,7.883,7.883c0,4.353-3.53,7.883-7.883,7.883c-4.354,0-7.882-3.53-7.882-7.883    C95.23,176.455,98.759,172.925,103.112,172.925z M100.409,323.781c-6.639-31.629-1.971-79.187-1.922-79.663    c0.004-0.044,8.274-3.487,8.996-14.351c0.578-8.687-7.057-15.765-15.764-15.765s-15.765,7.058-15.765,15.765    c0,5.281,2.606,9.944,6.595,12.805c-0.256,2.561-4.922,50.615,2.189,84.497c0.042,0.203-4.604,4.033-5.09,12.313    c-0.51,8.691,7.059,15.766,15.765,15.766c8.708,0,15.451-7.063,15.765-15.766C111.652,326.213,100.458,324.012,100.409,323.781z     M83.837,229.768c0-4.354,3.529-7.883,7.883-7.883c4.353,0,7.883,3.53,7.883,7.883c0,4.352-3.53,7.882-7.883,7.882    C87.366,237.649,83.837,234.12,83.837,229.768z M95.414,347.268c-4.353,0-7.882-3.531-7.882-7.885c0-4.352,3.529-7.883,7.882-7.883    s7.883,3.531,7.883,7.883C103.297,343.736,99.767,347.268,95.414,347.268z M445.79,288.641c-4.852,2.688-8.139,7.855-8.139,13.793    c0,8.705,7.058,15.764,15.764,15.764c8.707,0,15.766-7.059,15.766-15.764c0-5.477-2.795-10.295-7.034-13.124    c1.07-26.673-2.144-78.374-15.251-111.696c-12.771-32.466-32.611-59.705-57.375-78.774c-39.984-30.79-89.273-38.125-138.781-20.651    c-53.75,18.97-91.318,61.374-108.643,122.625c-12.915,45.66-9.992,88.922-9.996,90.282c-2.971,2.868-4.826,6.883-4.826,11.338    c0,8.705,7.058,15.764,15.764,15.764c8.707,0,15.492-7.063,15.765-15.764c0.396-12.628-10.702-15.641-10.724-15.926    c-0.029-0.385-2.701-38.799,9.553-81.788c16.127-56.579,49.246-94.069,98.436-111.43c44.219-15.607,88.146-9.129,123.684,18.237    C426.549,147.563,447.458,218.081,445.79,288.641z M150.921,302.435c0,4.352-3.529,7.884-7.883,7.884    c-4.353,0-7.882-3.532-7.882-7.884c0-4.352,3.529-7.883,7.882-7.883C147.392,294.551,150.921,298.083,150.921,302.435z     M453.415,294.551c4.354,0,7.883,3.531,7.883,7.883c0,4.352-3.529,7.884-7.883,7.884c-4.352,0-7.881-3.532-7.881-7.884    C445.534,298.083,449.063,294.551,453.415,294.551z M397.991,503.853c-5.093,0-9.609,2.425-12.49,6.173    c-35.307,0.397-54.281-24.469-55.982-26.147c-17.408-17.171-34.553-26.635-59.058-2.659c-38.179,37.355-60.714,28.803-61.061,28.821    c-2.89-3.584-7.31-5.88-12.271-5.88c-8.707,0-15.765,7.059-15.765,15.764c0,8.708,7.058,15.767,15.765,15.767    c6.492,0,12.065-3.93,14.48-9.537c2.02,0.122,31.301,4.686,61.214-25.646c14.339-14.537,29.638-20.822,45.451-5.229    c1.659,1.637,24.312,29.273,65.294,30.69c2.445,5.539,7.977,9.412,14.422,9.412c8.707,0,15.764-7.058,15.764-15.763    C413.755,510.911,406.698,503.853,397.991,503.853z M197.13,527.807c-4.354,0-7.883-3.529-7.883-7.883    c0-4.351,3.529-7.883,7.883-7.883c4.353,0,7.881,3.532,7.881,7.883C205.011,524.277,201.482,527.807,197.13,527.807z     M397.991,527.499c-4.353,0-7.882-3.53-7.882-7.881c0-4.354,3.529-7.884,7.882-7.884c4.354,0,7.883,3.53,7.883,7.884    C405.874,523.969,402.345,527.499,397.991,527.499z M348.109,541.625c-1.927,0-3.763,0.361-5.47,0.994    c-30.341-23.771-64.378-11.595-80.213-0.521c-2.136-1.082-4.543-1.704-7.102-1.704c-8.707,0-15.765,7.059-15.765,15.763    c0,8.708,7.058,15.766,15.765,15.766s15.765-7.058,15.765-15.766c0-0.176,35.091-23.998,61.449-1.116    c-0.115,0.768-0.819,16.241,15.57,18.112c8.649,0.988,15.765-7.057,15.765-15.764S356.815,541.625,348.109,541.625z M255.325,564.04    c-4.354,0-7.883-3.53-7.883-7.884s3.529-7.882,7.883-7.882c4.353,0,7.882,3.528,7.882,7.882S259.678,564.04,255.325,564.04z     M348.109,565.272c-4.353,0-7.883-3.53-7.883-7.884c0-4.353,3.53-7.882,7.883-7.882s7.882,3.529,7.882,7.882    C355.991,561.742,352.462,565.272,348.109,565.272z M226.849,447.919c-0.013,0.008-0.023,0.017-0.035,0.025    c-2.526-1.268-5.416-1.888-8.438-1.62c-8.674,0.77-15.08,8.423-14.313,17.095c0.768,8.673,8.42,15.081,17.093,14.313    c8.427-0.747,14.695-7.996,14.341-16.359c0.111-0.069,0.227-0.128,0.336-0.202c31.365-21.266,54.341-57.955,66.443-106.107    c9.021-35.894,8.727-68.338,8.418-69.181c4.73-3.012,7.701-8.455,7.271-14.44c-0.626-8.685-8.173-15.216-16.856-14.589    c-8.686,0.625-15.217,8.172-14.591,16.855c0.421,5.835,3.972,10.687,8.888,13.06C295.258,287.384,295.182,401.59,226.849,447.919z     M220.462,469.879c-4.337,0.386-8.164-2.818-8.548-7.155c-0.384-4.334,2.821-8.163,7.157-8.546c4.336-0.384,8.162,2.819,8.545,7.157    C228.001,465.67,224.798,469.497,220.462,469.879z M294.379,273.142c-0.313-4.343,2.954-8.117,7.296-8.43    c4.342-0.312,8.115,2.955,8.428,7.295c0.313,4.344-2.953,8.117-7.295,8.43C298.466,280.749,294.691,277.482,294.379,273.142z"></path></svg>