<svg xmlns="http://www.w3.org/2000/svg" viewBox="100 150 150 150" class="svg-logo" width="350" height="350" style="height: auto;"><g data-element="icon" transform="scale(0.17637449996365215) translate(665.184162869173 921.3595652860754)"><path id="color_x5F_2" fill="rgba(244, 138, 129, 1.0)" d="M297.638,382.416c-5.307,0-9.609-4.302-9.609-9.608v-36.06v-24.371v-85.103    c0-5.307,4.303-9.609,9.609-9.609c5.307,0,9.609,4.303,9.609,9.609v85.103v24.371v36.06    C307.247,378.114,302.945,382.416,297.638,382.416z M297.638,176.503c-26.087,0-47.309,21.224-47.309,47.312v60.425    c0,5.307,4.303,9.609,9.609,9.609c5.307,0,9.609-4.302,9.609-9.609v-60.425c0-15.49,12.603-28.093,28.09-28.093    s28.09,12.603,28.09,28.093v9.356c0,5.307,4.303,9.609,9.609,9.609s9.609-4.302,9.609-9.609v-9.356    C344.947,197.727,323.726,176.503,297.638,176.503z M259.938,341.547c5.307,0,9.609-4.302,9.609-9.608v-16.096    c0-5.308-4.303-9.609-9.609-9.609c-5.306,0-9.609,4.302-9.609,9.609v16.096C250.329,337.245,254.632,341.547,259.938,341.547z     M335.338,253.727c-5.307,0-9.609,4.302-9.609,9.609v47.699v25.713v34.713c0,15.488-12.603,28.091-28.09,28.091    s-28.09-12.603-28.09-28.091v-9.355c0-5.308-4.303-9.609-9.609-9.609c-5.306,0-9.609,4.302-9.609,9.609v9.355    c0,26.088,21.222,47.31,47.309,47.31s47.309-21.222,47.309-47.31v-34.713v-25.713v-47.699    C344.947,258.029,340.645,253.727,335.338,253.727z M297.638,442.943c-37.474,0-67.962-30.489-67.962-67.963v-51.09v-12.855v-90.74    c0-25.782,14.301-49.035,37.329-60.686c4.734-2.397,6.63-8.178,4.231-12.912c-2.388-4.736-8.168-6.632-12.912-4.236    c-29.527,14.941-47.868,44.765-47.868,77.834v90.74v12.855v51.09c0,48.071,39.107,87.181,87.181,87.181    c5.307,0,9.609-4.303,9.609-9.608C307.247,447.245,302.945,442.943,297.638,442.943z M208.478,428.764    c-2.656-4.598-8.535-6.177-13.123-3.521c-4.599,2.651-6.175,8.527-3.524,13.127c3.355,5.811,7.207,11.382,11.458,16.557    c1.9,2.316,4.654,3.512,7.432,3.512c2.149,0,4.307-0.715,6.095-2.184c4.101-3.366,4.697-9.422,1.328-13.525    C214.558,438.366,211.306,433.666,208.478,428.764z M198.953,406.477c-2.74-9.362-4.128-19.103-4.128-28.956v-66.485    c0-5.307-4.304-9.609-9.609-9.609c-5.307,0-9.609,4.303-9.609,9.609v66.485c0,11.679,1.647,23.237,4.899,34.353    c1.229,4.191,5.062,6.914,9.22,6.914c0.891,0,1.801-0.125,2.702-0.39C197.521,416.907,200.44,411.57,198.953,406.477z"></path> <path id="color_x5F_1" fill="rgba(171, 171, 171, 1.0)" d="M439.725,284.24v-66.263c0-78.346-63.74-142.085-142.086-142.085    s-142.086,63.739-142.086,142.085v93.058v25.713v40.548c0,78.349,63.74,142.089,142.086,142.089s142.086-63.74,142.086-142.089    v-66.261c0-5.307,4.303-9.609,9.609-9.609s9.608,4.303,9.608,9.609v66.261c0,88.944-72.358,161.306-161.304,161.306    S136.333,466.24,136.333,377.296v-40.548v-25.713v-93.058c0-88.942,72.359-161.304,161.305-161.304s161.304,72.362,161.304,161.304    v66.263c0,5.307-4.302,9.609-9.608,9.609S439.725,289.547,439.725,284.24z M332.622,453.852c1.459,0,2.937-0.332,4.331-1.037    c29.525-14.941,47.866-44.766,47.866-77.834v-55.895v-8.051v-90.74c0-48.071-39.107-87.181-87.181-87.181    c-5.306,0-9.609,4.302-9.609,9.609s4.303,9.609,9.609,9.609c37.475,0,67.962,30.489,67.962,67.962v90.74v8.051v55.895    c0,25.781-14.301,49.035-37.329,60.686c-4.733,2.397-6.629,8.178-4.231,12.912C325.729,451.923,329.111,453.852,332.622,453.852z     M409.01,382.417c-4.852,0-8.925,3.605-9.55,8.416c-6.55,50.415-49.651,89.504-101.822,89.504c-21.521,0-42.095-6.563-59.547-18.989    c-3.935-2.802-9.436-2.902-12.878,0.487c-4.374,4.307-3.682,11.266,1.065,14.692c20.87,15.066,45.545,23.028,71.36,23.028    c61.976,0,113.289-46.45,121.004-106.362C419.379,387.465,414.785,382.417,409.01,382.417L409.01,382.417z M276.909,117.039    c0.027-0.005,0.054-0.01,0.081-0.017c3.086-0.631,6.233-1.093,9.413-1.439c0.382-0.041,0.76-0.098,1.142-0.134    c3.276-0.32,6.592-0.499,9.951-0.505c3.358,0.006,6.675,0.185,9.949,0.505c0.384,0.036,0.762,0.093,1.145,0.134    c3.18,0.347,6.325,0.809,9.411,1.439c0.028,0.007,0.055,0.011,0.082,0.017c46.791,9.617,82.086,51.121,82.086,100.716l0.284,93.28    v52.484c0,5.306,4.302,9.607,9.609,9.607l0,0c5.307,0,9.608-4.302,9.608-9.607v-52.484v-93.28c0-11.681-1.646-23.239-4.897-34.353    c-0.23-0.784-0.578-1.496-0.975-2.169c-2.429-7.727-5.611-15.121-9.454-22.104c-0.212-0.759-0.487-1.509-0.898-2.222    c-3.359-5.82-7.216-11.392-11.462-16.56c-0.52-0.634-1.121-1.154-1.752-1.619c-5.855-6.871-12.439-13.104-19.662-18.538    c-0.465-0.526-0.979-1.019-1.572-1.445c-14.089-10.169-29.934-17.016-46.671-20.447c-0.439-0.092-0.881-0.173-1.323-0.261    c-2.643-0.53-5.306-0.93-7.978-1.279c-1.381-0.18-2.765-0.349-4.16-0.48c-1.109-0.101-2.219-0.184-3.332-0.254    c-2.434-0.162-4.882-0.267-7.349-0.283c-0.183-0.001-0.364-0.021-0.547-0.021c-0.047,0-0.094,0.003-0.142,0.003    c-0.047,0-0.095-0.003-0.142-0.003c-0.183,0-0.363,0.021-0.547,0.021c-2.469,0.016-4.916,0.121-7.349,0.283    c-1.114,0.07-2.224,0.153-3.332,0.254c-1.341,0.126-2.67,0.287-3.996,0.459c-2.784,0.361-5.557,0.791-8.312,1.334    c-0.384,0.076-0.772,0.146-1.156,0.228c-16.736,3.431-32.581,10.277-46.669,20.447c-0.593,0.427-1.107,0.919-1.571,1.445    c-29.622,22.287-48.817,57.724-48.817,97.564v65.97c0,4.787,3.271,9.224,7.995,9.992c6.02,0.98,11.224-3.641,11.224-9.477v-66.485    C194.824,168.16,230.119,126.656,276.909,117.039z"></path></g></svg>