<?xml version="1.0" encoding="utf-8"?>
<!-- Generator: Adobe Illustrator 23.0.1, SVG Export Plug-In . SVG Version: 6.00 Build 0)  -->
<svg version="1.1" id="Layer_1" xmlns="http://www.w3.org/2000/svg" xmlns:xlink="http://www.w3.org/1999/xlink" x="0px" y="0px"
	 viewBox="0 0 864 864" style="enable-background:new 0 0 864 864;" xml:space="preserve">
<g>
	<path fill="white" d="M244.9,338.7c-0.3,4.1-0.7,8.1-1,11.4c7.2-11.1,14.6-22.6,21.8-33.8c-1.7,0.8-4.4,2-7.1,3.3c-3,1.5-5.9,3.2-9.5,5.1
		c-9.2-13.4-16.7-27.4-16.5-45.9c11.2,0,22.1,0,32.9,0c0.1-0.5,0.3-0.9,0.4-1.4c-4.8-1.6-9.5-3.5-14.4-4.9c-4.9-1.3-9.9-2.1-15-3.2
		c9.2-12.5,34.9-22.7,62.5-24.6c-15.8-14.2-33.8-21.3-54.9-26.3c35.4-16.9,70.2-23,107.1-15.7c0.2-0.8,0.4-1.5,0.5-2.3
		c-11.3-4-22.4-8.9-34-11.8c-11.4-2.9-23.3-3.7-35.9-5.5c22-14.1,46-17.8,71.3-19.1c-11-2.4-22.1-4.8-35.4-7.7
		c31.8-6.1,61.3-6.1,91.5-1.6c-3.2-1.7-6.3-3.4-9.5-5.1c15.6,0.5,30,5.5,43.4,12.9c5.6,3.1,9.8,3.4,15.5,0.2
		c13.5-7.8,28.1-12.2,44-13c-3.2,1.8-6.5,3.5-9.7,5.3c30-5,59.7-4.4,89.5,1.9c-11,2.4-21.9,4.7-35,7.6c14.4,1.7,26.7,2,38.4,4.8
		c11.8,2.8,23,7.9,34.2,13.5c-24.5,2.2-47.7,6.7-68.7,19.4c36.3-6.3,70.6-0.2,103.4,16.3c-19.1,5-36.4,12.9-52.9,26.8
		c25,0.6,45.6,8.3,63.8,23.6c-11,3-21.1,5.7-31.1,8.4c0.1,0.5,0.2,0.9,0.3,1.4c11.1,0,22.2,0,33.9,0c0.8,18.4-7.3,32.2-16,46
		c-5.8-2.9-11.3-5.6-16.7-8.3c7.3,11.6,14.5,22.8,21.4,33.7c-0.2-2.9-0.4-6.8-0.6-10.9c13.4,12.7,24.7,52.4,24.3,85.4
		c-8.6-8-17.1-15.8-25.6-23.7c-0.6,0.4-1.3,0.8-1.9,1.2c22.7,31.7,23.9,67,17.7,103.9c-4.4-12.4-11-23.1-19.9-30.7
		c2.7,10.2,6.7,21,8.4,32.2c4.5,29.4-8.2,50.6-33.5,64.7c-4.1,2.3-5.2,4.7-5.9,9.4c-1.4,10.6-4.4,20.9-8.1,31.5
		c-5.3-11.6-11.1-21.8-22.1-28.5c2.5,7.9,5.7,15.4,7.3,23.1c2.9,14.8,0.3,28.1-12.2,38.4c-9.8,8-13,19.5-14.6,32.1
		c-14.1-2.1-25.7-7.1-33.9-19.8c-1.3,2.4-2.3,4.3-3.2,6.2c-5.7,11.8-14.8,18.6-28,20.9c-15.1,2.6-30.3,6.2-41.1,18.1
		c-5.6,6.2-9.3,14.1-14.1,21.7c-14.7-23.6-36.3-36.3-62.8-41.7c-8.5-1.7-14.9-9.2-23.2-24.9c-8.3,11.8-19.5,17.9-34,19.1
		c-1-14.9-7.7-25.9-18.3-35.8c-11.2-10.5-12.2-32.3-4.1-48.9c1.3-2.7,2.8-5.3,5.1-9.6c-13,7.3-19.1,17.6-22.6,31
		c-6.2-11.9-9.7-22.7-9.7-34.7c0-2.2-1.7-5.4-3.6-6.4c-39.9-21.3-44.3-60.4-27.3-94.3c0.8-1.5,1.5-3.1,2.2-4.6
		c-0.8-0.5-1.7-1-2.5-1.5c-6.8,10.6-13.6,21.1-20.4,31.8c-5.3-35.5-4-70.4,16.5-103.2c-4.3,3.3-8.8,6.4-12.8,10.1
		c-4.1,3.8-7.6,8.1-12.6,13.5C220.6,393.3,226.7,364.4,244.9,338.7z M381.1,477.5c-1.2,0.6-2.3,1.2-3.5,1.8
		c2.2,12.9,3.8,25.9,7,38.5c1.4,5.6,5.1,11.7,9.6,15.4c14.4,11.9,42.6,3.5,48.7-14.5c2-6,3.8-15,0.9-19c-6.2-8.4-15-15.3-23.8-21.2
		c-8.8-5.9-16.2-11.7-16.4-22.9c4.4,5,8.9,10.1,14.6,16.7c1.7-9.3,5.9-11.1,12.4-9.7c13.2,2.8,26.2,4.1,39.6,0.1
		c5.7-1.7,12.2-1.2,13.4,9.6c5.8-6.5,10.2-11.3,14.7-16.4c-1,10.5-7,16.8-15.4,22c-6.9,4.3-13.3,9.5-19.7,14.6
		c-7.8,6.1-8.6,14-5.7,22.9c4,12.6,12.7,20,25.5,22.2c11.1,1.9,22.6,2.1,29.2-9c9-15.2,10.7-32.3,9-50.3c-3.4,3.7-6.7,7.3-11,12
		c1-12.9,7-21.1,14.5-29c8.9-9.3,17.8-18.9,25-29.5c8.3-12.1,12.1-26.3,13.2-40.9c-0.9-0.5-1.7-0.9-2.6-1.4
		c-5.8,9-11.6,18.1-17.3,27c0-1.1-0.4-2.9,0.1-4.4c2.9-10.7,4.6-21.9,9.1-31.9c9.9-22,11.2-42.8-4.3-62.8c-0.4-0.6-0.6-1.3-1.4-3.2
		c7.6,2.3,14.4,4.3,22.4,6.7c-10-16-25.3-23.8-40-33.5c13.5-5.4,26.4-10.6,31.1-25.3c-10.9,9.5-23.9,13.3-37.9,14.2
		c-15.1,1-30.2,1.5-45.5,2.2c2.1-4.6,4.6-10.2,7.5-16.4c-15.3,4.7-24.3,16.2-33.1,27.9c-9.9-11-19-21.9-32.7-27.8
		c2.9,6.4,5.4,12,7.7,17c-11.1-1-21.1-2.8-31-2.6c-19.5,0.4-38-1.5-53.6-15c5.5,14.6,18.3,20.4,32,26.1c-15.2,9.5-30,17.9-40.5,33.6
		c8-2.4,14.7-4.5,21.4-6.5c0.5,0.4,1,0.8,1.5,1.3c-18.5,21.9-14.6,44.4-4.3,67.8c4.5,10.1,6.3,21.3,9.3,32c-0.8,0.3-1.5,0.5-2.3,0.8
		c-5.4-9.2-8.5-20.1-19.6-25.3c2.5,11.7,5.5,23.1,10.1,34c6.8,16.3,19.8,28.3,31.7,40.8c5.7,6,8.9,13.1,8.7,21.9
		C386.4,484.4,383.7,481,381.1,477.5z M322.8,316.5c-41.5,31.3-64,70.3-62.2,113.3c6.9-15.4,14.2-31.5,21.4-47.6
		c0.8,0.3,1.6,0.6,2.3,1c-0.7,3.5-1.5,7-2.1,10.5c-4,21.8-4.9,43.3,5.9,63.6c12.3,23.1,15.1,47.5,10.7,72.9
		c-1.3,7.5-3.9,14.8-6.2,23.2c28.2-33.5,27.3-68.7,10.5-105.5c2.6,2.3,4.7,4.6,6.4,7.1c12.8,18.6,24.9,37.6,28.6,60.4
		c3.2,19.5-0.9,38.6-4.6,57.6c-2.1,11-3.6,22.1-5.3,33.1c0.7,0.1,1.3,0.3,2,0.4c3.8-11,8.3-21.6,17.7-30.4
		c1.9,37.1,2.8,40.5,12.2,49.8c0-4.5,0-9,0-14.5c16.5,19.7,29,27.3,48,29.7c-35.8-23.6-45.3-59.1-44.6-100.8
		c-4.3,4.5-7.1,7.5-10.3,10.9c0-2.3-0.2-3.8,0-5.3c5.4-34.5-2.5-65.5-22.9-93.9c-9.3-12.9-16.9-27.2-24.3-41.4
		c-5.2-10-6.8-21.2-4.5-32.3c6.2,8.6,12.1,16.9,18,25.3c0.9-0.4,1.8-0.9,2.7-1.3C313.7,373.7,313.2,345.3,322.8,316.5z M599.6,378.7
		c2.7,11.2,0.6,22.1-4.4,31.5c-9.8,18.4-20.9,36.1-32,53.9c-8.2,13.1-14.7,26.9-15.4,42.5c-0.7,14.8-0.1,29.6-0.1,44.8
		c-3-3.4-5.8-6.6-10-11.4c0.4,41.9-8.6,77.4-43.9,101.2c19.5-3.5,35.3-12.8,47.4-30.9c0,6.6,0,10.9,0,16.2
		c12.5-15.3,13.4-32.2,11.2-49.9c0.9-0.3,1.9-0.6,2.8-1c5.7,10.5,11.5,21,17.2,31.6c-1.4-13.7-3-27.5-6.2-41
		c-7.9-32.6-5.6-63.5,12.8-92.3c5.5-8.6,11.3-16.9,17-25.3c0.6,0.3,1.3,0.7,1.9,1c-8.2,16.7-12,34.3-11.5,52.9
		c0.5,16.3,11.7,41.6,21.5,48.2c-12-33.7-9.8-66.2,6.8-98.1c3.8-7.3,6-16.3,6.1-24.5c0.3-15-1.4-30.1-2.5-47.6
		c7.9,17.4,15.1,33.1,22.3,48.8c3.9-37-29.3-97.4-61.9-111.9c9.3,28.5,8.4,56.8,0.2,85.2c0.8,0.3,1.6,0.7,2.4,1
		C587.2,395.7,593.1,387.5,599.6,378.7z M395.4,231.8c9.6,2.8,18.5,5.1,27.2,8.2c9.9,3.6,19.6,11.1,29.4,11.1
		c9.8,0,19.4-7.4,29.4-11c8.8-3.1,17.9-5.4,27.2-8.2c-2.4,9.7-4.5,18.1-7.2,28.7c27.7-18.8,56.1-29.5,85.8-37.2
		c-9.2,0-18.3,0.1-27.1,1.8c-11.8,2.2-23.4,5.4-36.1,8.5c4.4-5.5,8.5-10.6,13.9-17.4c-18.8,2.4-35.8,4.5-55.4,7
		c12.4-9.2,23.2-17.1,34.2-25.2c-24.2,3.3-45.9,12.2-64.5,27.3c-26.7-18-51.4-28-62.7-26c9.7,7.2,19.9,14.7,30,22.3
		c-0.3,0.3-0.7,0.6-1,1c-16.9-2-33.8-4-51.8-6.2c5.3,7,9.4,12.3,13.4,17.6c-21.9-9.1-44.1-10.4-66.6-10.8
		c31.3,6.6,60.5,18.4,88.8,34.9C400.1,249.8,398,241.7,395.4,231.8z M415.9,570.9c12.8,27.5,61.1,24.7,70,1c0,4.6,0,9.3,0,13.9
		c0.7,0.4,1.4,0.8,2,1.2c3.5-5.7,8.8-11,10-17.1c1-4.8-3-10.6-4.7-15.8c2.4,0.7,6,1.7,10.4,3c-34.5-32.3-85.9-22.7-104.8,0.2
		c3.6-1.2,7.2-2.5,12.5-4.3c-11.9,13.7-10,24.8,4.5,32.8C415.9,581.2,415.9,576.8,415.9,570.9z M520.8,640.8
		c-22.5,11.9-45,15.3-68.6,6.1c-1.8-0.7-4.3,0.3-6.4,0.5c-10.6,1.4-21.4,4.6-31.8,3.8c-11.6-0.9-23-5.4-34.1-8.3
		c1.3,12.8,10.5,21.6,24.7,22.6c10.9,0.8,21.1,3.8,31.3,11.1c-7.3-0.5-13.2-0.9-19.1-1.3c10.2,6.3,19.7,12.3,29.4,17.9
		c2,1.1,5.6,1.5,7.4,0.5c9.9-5.6,19.4-11.8,29.7-18.2c-5.7,0.3-11.2,0.7-18.2,1.1c10.3-7.8,20.7-10.1,31.6-11.1
		C510.9,664,519.5,655.6,520.8,640.8z M659.5,290c-16.1-2.1-30-1.5-43.6,4.3c6.1,0.7,12.1,1.4,20.3,2.4c-4.3,1.4-6.3,2-8.4,2.7
		c7.3,3.4,14.1,6.5,21.9,10.1C652.5,303.8,655.6,297.7,659.5,290z M242.8,290.4c3.9,7.5,7,13.5,9.7,18.8c8-3.6,14.6-6.6,21.9-9.8
		c-2.1-0.9-3.7-1.6-5.4-2.3c0.1-0.4,0.1-0.8,0.2-1.2c5.7-0.5,11.5-1,17.2-1.5C272.7,288.9,258.8,287.4,242.8,290.4z"/>
	<path fill="white" d="M352.4,330.5c16.6,4.9,32.5,9.6,48.6,14.3c0.1-0.8,0.4-2.5,0.7-4.1c0.7-0.2,1.4-0.5,2.1-0.7c1.5,5.2,4.9,10.6,4.2,15.5
		c-1.1,8.6,2.3,15.6,5,23c0.1,0.2,0.2,0.5,0.3,0.7c10.7,17.4,6.5,33.3-6.3,49.6c0.7-3.5,1.2-5.6,1.6-7.8c0.4-2.5,0.5-5.2,1.1-7.7
		c3.8-15.2-4.1-27.5-9.7-40.4c-0.6-1.3-3.3-1.9-5.2-2.3c-11.2-2.7-21.2-6.8-25.6-18.9c-0.6-1.8-3.4-2.8-5.2-4.1
		C357.9,343.4,352.3,338.6,352.4,330.5z M395.9,347.1c-3.1,5.3-4.9,8.2-7.2,12.1c-2.5-13.8-4.2-15.2-13.6-12.2
		c2.5,10.3,6.8,15.5,14.5,15.3c3.2-0.1,7.2-2.5,9.3-5.1C400,356,397.5,351.9,395.9,347.1z"/>
	<path fill="white" d="M501.1,340.6c0.2,1.6,0.4,3.3,0.5,4.5c16.4-4.9,32.5-9.8,50.6-15.2c-2.9,5-4.7,10.1-8.2,13.4c-5.1,4.9-10.1,9.6-14.6,15.2
		c-4.4,5.5-12.4,8.9-19.4,11.1c-4.7,1.5-7.4,3.3-9.5,7.5c-7.7,15.3-11,31-4.9,47.7c0.5,1.3,0.2,2.8-1,4.8c-3.9-8.6-8-17.1-11.7-25.8
		c-0.8-1.9-0.4-4.6,0.3-6.7c2.3-7.1,5.4-14,7.5-21.2c1.8-6,2.6-12.3,3.9-18.4c1.2-5.8,2.6-11.6,3.9-17.4
		C499.4,340.2,500.2,340.4,501.1,340.6z M528.1,344.9c-4.4,1.2-8.6,1.2-10.6,3.3c-2.2,2.1-2.3,6.3-3.9,11.1c-2-4-3.4-6.8-5.8-11.7
		c-1.8,4.2-4.7,8.7-3.9,9.5c2.6,2.6,6.5,5.2,10,5.3C520.9,362.4,525.8,356.4,528.1,344.9z"/>
</g>
</svg>
